<svg xmlns="http://www.w3.org/2000/svg" viewBox="0 0 512 512" style="height: 512px; width: 512px;"><defs><filter id="shadow-2" height="300%" width="300%" x="-100%" y="-100%"><feFlood flood-color="rgba(0, 0, 0, 1)" result="flood"></feFlood><feComposite in="flood" in2="SourceGraphic" operator="atop" result="composite"></feComposite><feGaussianBlur in="composite" stdDeviation="15" result="blur"></feGaussianBlur><feOffset dx="0" dy="0" result="offset"></feOffset><feComposite in="SourceGraphic" in2="offset" operator="over"></feComposite></filter><filter id="shadow-3" height="300%" width="300%" x="-100%" y="-100%"><feFlood flood-color="rgba(10, 0, 0, 1)" result="flood"></feFlood><feComposite in="flood" in2="SourceGraphic" operator="atop" result="composite"></feComposite><feGaussianBlur in="composite" stdDeviation="5" result="blur"></feGaussianBlur><feOffset dx="0" dy="0" result="offset"></feOffset><feComposite in="SourceGraphic" in2="offset" operator="over"></feComposite></filter><linearGradient id="lorc-sprint-gradient-1"><stop offset="0%" stop-color="#9c1919" stop-opacity="1"></stop><stop offset="100%" stop-color="#f8e71c" stop-opacity="1"></stop></linearGradient><linearGradient id="lorc-sprint-gradient-2" x1="0" x2="1" y1="1" y2="0"><stop offset="0%" stop-color="#a40015" stop-opacity="1"></stop><stop offset="100%" stop-color="#fbb000" stop-opacity="1"></stop></linearGradient><pattern><pattern id="pattern" patternUnits="userSpaceOnUse" width="16" height="16"><path d="M 0 4 l 4 0 l 0 -4 M 12 16 l 0 -4 l 4 0 M 4 8 l 0 4 l 4 0 M 8 4 l 4 0 l 0 4" fill="transparent" stroke="#630000" stroke-width="2" stroke-linecap="square" shape-rendering="auto"></path></pattern></pattern></defs><polygon points="464.8,342.49,342.49,464.8,169.51,464.8,47.2,342.49,47.2,169.51,169.51,47.2,342.49,47.2,464.8,169.51" fill="url(#pattern)" fill-opacity="1" stroke="#630000" stroke-opacity="1" stroke-width="30"></polygon><g class="" transform="translate(-48,20)" style=""><g transform="translate(25.6, 25.6) scale(0.9, 0.9) rotate(-360, 256, 256) skewX(6) skewY(-1)"><path d="M169.53 16.344L259.345 88L337 92.28L335.97 110.937L174.594 102.031L55.814 97.126L283.094 165.156L85.374 411.906L70.844 394.251L21.624 490.876L270.314 288.096L322.124 299.688L283.344 340.282L270.5 329.5L213.22 413.625L444.843 273.47L328 241.06L428.22 159.342C429.352 159.802 430.52 160.24 431.72 160.562C455.044 166.81 481.484 143.727 490.78 109.029C500.078 74.334 488.7 41.155 465.375 34.905C442.05 28.655 415.61 51.707 406.312 86.405C404.845 91.881 403.909 97.323 403.437 102.625L169.53 16.343Z" class="selected" fill="url(#lorc-sprint-gradient-2)" stroke="#000000" stroke-opacity="1" stroke-width="5" filter="url(#shadow-2)"></path></g></g></svg>